<?xml version="1.0" encoding="utf-8"?>
<!-- Generator: Adobe Illustrator 27.2.0, SVG Export Plug-In . SVG Version: 6.00 Build 0)  -->
<svg version="1.1" id="Layer_1" xmlns="http://www.w3.org/2000/svg" xmlns:xlink="http://www.w3.org/1999/xlink" x="0px" y="0px"
	 viewBox="0 0 1778 414" style="enable-background:new 0 0 1778 414;" xml:space="preserve">
<style type="text/css">
	.st0{fill:#FFFFFF;}
	.st1{fill:#72BA0E;}
	.st2{fill:#5D980B;}
	.st3{fill:#75BF0D;}
	.st4{fill:#80D20F;}
	.st5{fill:#8CE510;}
	.st6{fill:#96EF1A;}
	.st7{fill:#69AC0C;}
</style>
<g>
	<path class="st0" d="M414.3,281.2c-2.2,1.8-5.7,3.8-10.4,6.1c-4.7,2.3-10.3,4.3-16.7,6c-6.4,1.7-13.5,2.5-21.4,2.3
		c-12.6-0.1-23.8-2.4-33.8-6.8c-10-4.4-18.5-10.3-25.5-17.7c-7-7.5-12.4-16-16.2-25.7c-3.8-9.7-5.6-20-5.6-31.1
		c0-12,1.9-23.1,5.8-33.3c3.8-10.3,9.3-19.1,16.4-26.6c7.1-7.5,15.5-13.2,25.2-17.4c9.7-4.1,20.4-6.2,32.1-6.2
		c10,0,19.1,1.4,27.1,4.1c8,2.7,14.8,5.9,20.3,9.4l-10.2,24.1c-4.1-3.1-9.3-6-15.5-8.7c-6.2-2.7-13.2-4.1-21-4.1
		c-7.1,0-13.8,1.4-20.3,4.3c-6.4,2.9-12.1,6.9-17.1,12.2c-4.9,5.2-8.9,11.4-11.7,18.4c-2.9,7-4.3,14.5-4.3,22.5
		c0,8.3,1.3,16,3.9,23.1c2.6,7.2,6.3,13.3,11.1,18.5c4.8,5.2,10.5,9.2,17.2,12c6.6,2.8,14.2,4.2,22.6,4.2s15.8-1.3,22-3.9
		c6.3-2.6,11.3-5.5,15.2-8.7L414.3,281.2z"/>
	<path class="st0" d="M438.7,213.5c0-11.1,2.1-21.6,6.4-31.6c4.3-10,10.2-18.8,17.7-26.5c7.5-7.7,16.2-13.7,26.1-18.1
		c9.9-4.4,20.6-6.5,32.1-6.5c11.2,0,21.8,2.2,31.8,6.5c10,4.4,18.8,10.4,26.5,18.1c7.7,7.7,13.7,16.5,17.9,26.5
		c4.3,10,6.4,20.5,6.4,31.6c0,11.4-2.1,22-6.4,31.9c-4.3,9.9-10.3,18.6-18.1,26.2c-7.8,7.6-16.6,13.5-26.5,17.7
		c-9.9,4.2-20.5,6.3-31.9,6.3c-11.4,0-22-2.1-31.9-6.3c-9.9-4.2-18.6-10-26.1-17.5c-7.5-7.5-13.4-16.2-17.7-26.1
		C440.8,235.7,438.7,225,438.7,213.5z M465.3,213.2c0,8.1,1.4,15.7,4.3,22.6c2.9,6.9,6.9,13,12.1,18.3c5.2,5.2,11.2,9.3,18.1,12.3
		c6.9,3,14.2,4.4,22,4.4c7.8,0,15.1-1.5,21.8-4.4c6.7-3,12.5-7,17.5-12.3c4.9-5.2,8.9-11.3,11.7-18.3c2.9-6.9,4.3-14.4,4.3-22.4
		c0-8.1-1.5-15.7-4.4-22.6c-3-6.9-6.9-13.1-12-18.4c-5-5.3-10.9-9.5-17.7-12.4c-6.8-3-14.1-4.4-21.9-4.4c-7.8,0-15.1,1.5-21.9,4.5
		c-6.8,3-12.7,7.2-17.8,12.4c-5.1,5.2-9,11.4-11.9,18.4C466.7,198,465.3,205.4,465.3,213.2z"/>
	<path class="st0" d="M638,293.9V132.6h45.8c15.9,0,29.6,2.4,40.9,7.3c11.3,4.9,20.4,11.3,27.2,19.3c6.9,8,11.9,16.9,15.2,26.7
		c3.2,9.8,4.9,19.7,4.9,29.6c0,12.1-2.1,23-6.4,32.6c-4.3,9.6-10.1,17.8-17.5,24.7c-7.4,6.9-15.9,12.1-25.7,15.7
		c-9.7,3.6-19.9,5.4-30.6,5.4H638z M663.9,269.1h22.8c8.7,0,16.6-1.2,23.8-3.7c7.2-2.4,13.3-6,18.5-10.6c5.2-4.7,9.2-10.4,12.1-17.3
		c2.9-6.9,4.3-14.8,4.3-23.8c0-10-1.7-18.6-5-25.8c-3.3-7.2-7.7-13-13.1-17.5c-5.4-4.5-11.3-7.8-17.6-9.9
		c-6.4-2.1-12.6-3.1-18.8-3.1h-27V269.1z"/>
	<path class="st0" d="M806.6,132.6h107v24.8h-81.1v43h72.2v24.8h-72.2v43.9h84.2v24.8H806.6V132.6z"/>
	<path class="st0" d="M997.9,132.6c8.9,0,16.9,1.2,24.3,3.5c7.3,2.4,13.6,5.7,18.8,10.1c5.2,4.4,9.3,9.7,12.1,16.1
		c2.8,6.4,4.2,13.7,4.2,22.2c0,6.4-1,12.7-2.9,19c-1.9,6.4-5.1,12.1-9.4,17.3s-10.1,9.3-17.2,12.4c-7.1,3.1-15.8,4.7-26.1,4.7h-23.5
		v56h-25.9V132.6H997.9z M1001.3,212.8c5.6,0,10.3-0.9,14.2-2.7c3.8-1.8,6.9-4.1,9.1-6.9s3.8-5.8,4.8-9c1-3.2,1.4-6.2,1.4-9
		c0-2.7-0.4-5.6-1.3-8.7c-0.9-3.2-2.4-6.2-4.5-9.2c-2.1-3-5.1-5.3-8.7-7.2c-3.7-1.8-8.3-2.8-14-2.8h-23.9v55.4H1001.3z
		 M1029.2,228.5l41.2,65.3h-30.1l-41.9-64.7L1029.2,228.5z"/>
	<path class="st0" d="M1100.7,132.6h97.9v24.8h-72v45.4h62.9v24.8h-62.9v66.2h-25.9V132.6z"/>
	<path class="st0" d="M1232.1,132.6h107v24.8H1258v43h72.2v24.8H1258v43.9h84.2v24.8h-110.1V132.6z"/>
	<path class="st0" d="M1360.7,293.9l71.5-167.9h1.6l71.3,167.9h-29.5l-50.5-127.6l18.6-12.2l-57.6,139.8H1360.7z M1405.9,234.1h54.9
		l8.9,21.7H1398L1405.9,234.1z"/>
	<path class="st0" d="M1617.2,165.6c-5.8-3.1-11.9-5.7-18.4-7.9c-6.5-2.1-12.7-3.2-18.6-3.2c-8,0-14.3,1.8-18.8,5.3
		c-4.6,3.5-6.9,8.4-6.9,14.6c0,4.4,1.6,8.3,4.8,11.6c3.2,3.3,7.3,6.2,12.3,8.6c5,2.4,10.3,4.8,15.9,7c4.9,1.8,9.7,3.9,14.4,6.3
		c4.7,2.4,9,5.4,13,8.9s7,7.9,9.3,13.3c2.3,5.4,3.4,11.8,3.4,19.4c0,8.6-2.1,16.3-6.3,23.1c-4.2,6.9-10.4,12.4-18.5,16.6
		c-8.1,4.2-17.8,6.3-29,6.3c-6.8,0-13.4-0.7-19.8-2.2c-6.4-1.5-12.5-3.5-18.3-6c-5.8-2.5-11.1-5.5-16-9.1l11.5-19.9
		c3.5,2.7,7.6,5.1,12.2,7.3c4.6,2.2,9.3,4,14.1,5.3c4.8,1.3,9.4,2,13.8,2c4.4,0,9-0.8,13.6-2.3c4.7-1.6,8.5-4,11.4-7.4
		c3-3.4,4.4-8,4.4-13.7c0-4.6-1.3-8.5-4-11.6c-2.7-3.2-6.1-6-10.3-8.4c-4.2-2.4-8.8-4.6-13.8-6.5c-4.9-1.9-10-4.1-15.3-6.4
		c-5.3-2.4-10.2-5.3-14.7-8.7c-4.5-3.5-8.1-7.7-10.7-12.7c-2.7-5-4-11.1-4-18.4c0-8.9,2-16.6,6-23.1c4-6.6,9.7-11.8,17.2-15.6
		c7.5-3.8,15.9-5.9,25.4-6.2c11.4,0,21.1,1.4,29.1,4.1c8,2.7,15.2,6.1,21.6,10.1L1617.2,165.6z"/>
	<path class="st0" d="M1647.1,132.6H1755v24.8h-41.6v136.4h-25.7V157.4h-40.5V132.6z"/>
</g>
<g>
	<polyline class="st0" points="76.5,350.7 126.3,300.9 152.7,327.3 76.5,403.5 	"/>
	<polygon class="st0" points="67.2,182.2 67.2,233.4 20.2,186.5 20.2,135.3 	"/>
	<polygon class="st0" points="152.7,95.5 127.1,121.1 74,68 74,16.8 	"/>
	<path class="st0" d="M247.7,182.8v52.8L195,288.3l-22.2-22.2l-4.2-4.2c0,0,0,0,0,0l53.5-53.5l-49.5-49.5l25.6-25.6L247.7,182.8z"/>
	<polygon class="st1" points="243.2,404.8 153,314.7 77.9,239.6 77.9,186.8 157,107.7 243.2,21.5 243.2,72.7 157,158.9 103.4,212.5 
		153,261.9 179.4,288.3 182.7,291.6 243.2,352.1 	"/>
	<polygon class="st2" points="197.6,86.3 160.6,103.7 185.6,109.8 	"/>
	<polygon class="st3" points="185.6,109.8 217.1,98.9 197.6,86.3 	"/>
	<polygon class="st3" points="197.6,86.3 197.5,67 160.6,103.7 	"/>
	<polygon class="st4" points="197.6,86.3 212.9,72.6 197.5,67 	"/>
	<polygon class="st5" points="212.9,72.6 217.1,98.9 197.6,86.3 	"/>
	<polygon class="st6" points="212.9,72.6 220.8,43.8 197.5,67 	"/>
	<polygon class="st3" points="212.9,72.6 227,69.7 217.1,98.9 	"/>
	<polygon class="st6" points="227,69.7 243.2,72.7 217.1,98.9 	"/>
	<polygon class="st4" points="227,69.7 220.8,43.8 212.9,72.6 	"/>
	<polygon class="st2" points="227,69.7 243.2,21.5 220.8,43.8 	"/>
	<polygon class="st4" points="217.1,98.9 172.3,143.5 185.6,109.8 	"/>
	<polygon class="st5" points="185.6,109.8 160.6,103.7 153.5,138.3 	"/>
	<polygon class="st6" points="153.5,138.3 172.3,143.5 185.6,109.8 	"/>
	<polygon class="st3" points="160.6,103.7 135.5,150 153.5,138.3 	"/>
	<polygon class="st4" points="153.5,138.3 149,166.9 172.3,143.5 	"/>
	<polygon class="st5" points="135.5,150 149,166.9 153.5,138.3 	"/>
	<polygon class="st5" points="135.5,150 114.5,150 160.6,103.7 	"/>
	<polygon class="st7" points="135.5,150 127.8,165.8 114.5,150 	"/>
	<polygon class="st4" points="135.5,150 122.1,177.4 149,166.9 	"/>
	<polygon class="st5" points="122.1,177.4 114.5,150 127.8,165.8 	"/>
	<polygon class="st5" points="122.1,177.4 103.4,212.5 149,166.9 	"/>
	<polygon class="st4" points="122.1,177.4 102.3,176.2 103.4,212.5 	"/>
	<polygon class="st7" points="122.1,177.4 89.7,175 114.5,150 	"/>
	<polygon class="st5" points="102.3,176.2 77.9,186.8 89.7,175 	"/>
	<polygon class="st4" points="77.9,186.8 91.2,229.3 102.3,176.2 	"/>
	<polygon class="st7" points="91.2,229.3 103.4,212.5 102.3,176.2 	"/>
	<polygon class="st7" points="77.9,186.8 77.9,239.6 94.8,241.6 	"/>
	<polygon class="st5" points="94.9,241.8 115.2,276.9 77.9,239.6 	"/>
	<polygon class="st5" points="94.9,241.8 103.4,212.5 91.2,229.3 	"/>
	<polygon class="st7" points="94.9,241.8 118.2,246.5 100.7,221.9 	"/>
	<polygon class="st4" points="118.2,246.5 103.4,212.5 100.7,221.9 	"/>
	<polygon class="st4" points="94.9,241.8 118.2,246.5 115.2,276.9 	"/>
	<polygon class="st5" points="118.2,246.5 148.1,257 103.4,212.5 	"/>
	<polygon class="st5" points="118.2,246.5 141,302.5 115.2,276.9 	"/>
	<polygon class="st7" points="118.2,246.5 148.1,257 142.6,265.5 	"/>
	<polygon class="st4" points="142.6,265.5 141,302.5 118.2,246.5 	"/>
	<polygon class="st4" points="142.6,265.5 148.1,257 157.9,288.4 	"/>
	<polygon class="st3" points="141,302.5 142.6,265.5 157.9,288.4 	"/>
	<polygon class="st5" points="157.9,288.4 163.4,272.4 148.1,257 	"/>
	<polygon class="st4" points="141,302.5 158.5,298.3 157.9,288.4 	"/>
	<polygon class="st5" points="158.5,298.3 169.3,293 157.9,288.4 	"/>
	<polygon class="st2" points="158.5,298.3 169.2,330.6 141,302.5 	"/>
	<polygon class="st4" points="169.3,293 163.4,272.4 157.9,288.4 	"/>
	<polygon class="st3" points="163.4,272.4 188.2,297.2 169.3,293 	"/>
	<polygon class="st5" points="169.3,293 184.8,318.5 188.2,297.2 	"/>
	<polygon class="st4" points="169.3,293 166,320.9 158.5,298.6 	"/>
	<polygon class="st7" points="166,320.9 184.8,318.5 169.3,293 	"/>
	<polygon class="st4" points="166,320.9 169.2,330.6 184.8,318.5 	"/>
	<polygon class="st5" points="184.8,318.5 193.6,330.2 169.2,330.6 	"/>
	<polygon class="st4" points="169.2,330.6 178,339.5 193.5,330.3 193.6,330.2 	"/>
	<polygon class="st7" points="193.6,330.2 192.3,316.9 184.8,318.5 	"/>
	<polygon class="st4" points="192.3,316.9 188.2,297.2 184.8,318.5 	"/>
	<polygon class="st3" points="192.3,316.9 208.1,316.9 188.2,297.2 	"/>
	<polygon class="st5" points="193.6,330.2 222.2,331.2 208.1,316.9 	"/>
	<polygon class="st5" points="193.6,330.2 202.9,364.3 178,339.5 	"/>
	<polygon class="st4" points="202.9,364.3 214.6,343.4 193.6,330.2 	"/>
	<polygon class="st5" points="214.6,343.4 232.4,341.4 222.2,331.2 	"/>
	<polygon class="st3" points="193.6,330.2 214.6,343.4 222.2,331.2 	"/>
	<polygon class="st5" points="214.6,343.4 243.2,404.8 202.9,364.3 	"/>
	<polygon class="st4" points="214.6,343.4 243.2,352.1 232.4,341.4 	"/>
	<polygon class="st3" points="243.2,352.1 243.2,404.8 214.6,343.4 	"/>
</g>
</svg>
